<svg width="25" height="25" viewBox="0 0 25 25" fill="none" xmlns="http://www.w3.org/2000/svg">
<path d="M0 0H25V25H0V0Z" fill="white" fill-opacity="0.01"/>
<path fill-rule="evenodd" clip-rule="evenodd" d="M12.5 2.08333C6.74703 2.08333 2.08333 6.74703 2.08333 12.5C2.08333 18.253 6.74703 22.9167 12.5 22.9167C18.253 22.9167 22.9167 18.253 22.9167 12.5C22.9167 6.74703 18.253 2.08333 12.5 2.08333ZM0 12.5C0 5.59646 5.59646 0 12.5 0C19.4035 0 25 5.59646 25 12.5C25 19.4035 19.4035 25 12.5 25C5.59646 25 0 19.4035 0 12.5Z" fill="#6E40C9"/>
<path fill-rule="evenodd" clip-rule="evenodd" d="M9.99115 23.6831C9.89042 23.553 9.89042 22.3944 9.99115 20.2073C8.91209 20.2445 8.23032 20.1696 7.94584 19.9826C7.51917 19.702 7.09198 18.8368 6.71297 18.227C6.33396 17.6172 5.49271 17.5208 5.15303 17.3845C4.81333 17.2481 4.72805 16.6924 6.08907 17.1127C7.45011 17.533 7.51646 18.6774 7.94584 18.945C8.37521 19.2126 9.40167 19.0955 9.86698 18.8811C10.3322 18.6668 10.298 17.8686 10.381 17.5524C10.4859 17.2572 10.1162 17.1918 10.108 17.1894C9.65381 17.1894 7.26756 16.6704 6.61209 14.3596C5.95667 12.0489 6.80099 10.5385 7.25141 9.88927C7.55167 9.4564 7.52511 8.5339 7.17172 7.12166C8.45485 6.95771 9.445 7.36156 10.1423 8.33333C10.143 8.3389 11.0564 7.79015 12.5 7.79015C13.9437 7.79015 14.4558 8.23713 14.851 8.33333C15.2463 8.42953 15.5624 6.63229 18.0034 7.12166C17.4938 8.12333 17.067 9.375 17.3928 9.88927C17.7185 10.4035 18.997 12.0389 18.2117 14.3596C17.6881 15.9069 16.6589 16.8501 15.1241 17.1894C14.948 17.2455 14.8601 17.3361 14.8601 17.4611C14.8601 17.6487 15.098 17.6692 15.4408 18.5477C15.6693 19.1334 15.6858 20.8062 15.4903 23.5661C14.995 23.6922 14.6097 23.7768 14.3343 23.8201C13.8461 23.8968 13.316 23.9398 12.7951 23.9565C12.2743 23.9731 12.0934 23.9712 11.3733 23.9042C10.8933 23.8595 10.4326 23.7858 9.99115 23.6831Z" fill="#6E40C9"/>
</svg>
